<svg width="16" height="16" viewBox="0 0 16 16" fill="none" xmlns="http://www.w3.org/2000/svg">
<path d="M15.3194 3.79183C14.8412 2.96746 13.5794 2.78183 11.6631 3.25058C10.776 2.56461 9.7142 2.14119 8.59845 2.02843C7.48271 1.91568 6.3577 2.1181 5.35124 2.61271C4.34478 3.10731 3.4972 3.87427 2.9048 4.82646C2.31241 5.77866 1.99893 6.8779 1.99999 7.99933C2.00007 8.25656 2.01635 8.51353 2.04874 8.76871C0.318112 10.5618 0.343112 11.6243 0.681237 12.2068C0.999987 12.7593 1.66499 12.9993 2.53999 12.9993C3.1475 12.9868 3.75143 12.9029 4.33936 12.7493C5.22662 13.4346 6.28825 13.8575 7.40371 13.9698C8.51917 14.0821 9.64378 13.8794 10.6498 13.3847C11.6559 12.8901 12.5031 12.1232 13.0953 11.1713C13.6875 10.2193 14.0009 9.12043 14 7.99933C14.0001 7.74336 13.984 7.48764 13.9519 7.23371C14.7331 6.42121 15.2531 5.64933 15.43 4.98871C15.5519 4.53121 15.515 4.12871 15.3194 3.79183ZM7.99999 2.99933C9.13245 3.00049 10.2311 3.38554 11.1165 4.0916C12.0019 4.79766 12.6218 5.78303 12.875 6.88683C11.8087 7.89058 10.3656 8.91996 8.99561 9.70746C7.27374 10.6956 5.77999 11.3118 4.58874 11.6493C3.85503 10.965 3.34434 10.0757 3.12315 9.09709C2.90196 8.11848 2.98051 7.09596 3.34859 6.16262C3.71666 5.22929 4.3572 4.42839 5.18682 3.86419C6.01644 3.29999 6.9967 2.99862 7.99999 2.99933ZM1.54624 11.705C1.45499 11.5481 1.50561 11.2525 1.68499 10.8925C1.86237 10.5552 2.07818 10.2395 2.32811 9.95183C2.57586 10.6696 2.95762 11.3339 3.45311 11.9093C2.37499 12.0906 1.70249 11.975 1.54624 11.705ZM7.99999 12.9993C7.15694 13.0002 6.32756 12.7864 5.58999 12.3781C6.94379 11.8993 8.25006 11.2954 9.49186 10.5743C10.8406 9.79996 12.0344 8.96058 12.9962 8.13183C12.9606 9.4338 12.4188 10.6706 11.4859 11.5795C10.553 12.4883 9.30245 12.9977 7.99999 12.9993ZM14.4637 4.72996C14.3575 5.12433 14.0769 5.57558 13.6744 6.05058C13.4273 5.33191 13.0454 4.66692 12.5494 4.09121C13.4375 3.94433 14.26 3.95558 14.4556 4.29371C14.5119 4.39183 14.515 4.53871 14.4637 4.72996Z" fill="#171717"/>
</svg>
