<svg width="76" height="76" viewBox="0 0 76 76" fill="none" xmlns="http://www.w3.org/2000/svg">
<rect width="76" height="76" rx="9.5" fill="#F0FDF4"/>
<path d="M20.1875 26.125C20.1875 25.7313 20.3439 25.3538 20.6223 25.0754C20.9006 24.797 21.2782 24.6406 21.6719 24.6406H54.3281C54.7218 24.6406 55.0994 24.797 55.3777 25.0754C55.6561 25.3538 55.8125 25.7313 55.8125 26.125C55.8125 26.5187 55.6561 26.8962 55.3777 27.1746C55.0994 27.453 54.7218 27.6094 54.3281 27.6094H21.6719C21.2782 27.6094 20.9006 27.453 20.6223 27.1746C20.3439 26.8962 20.1875 26.5187 20.1875 26.125ZM21.6719 39.4844H54.3281C54.7218 39.4844 55.0994 39.328 55.3777 39.0496C55.6561 38.7712 55.8125 38.3937 55.8125 38C55.8125 37.6063 55.6561 37.2288 55.3777 36.9504C55.0994 36.672 54.7218 36.5156 54.3281 36.5156H21.6719C21.2782 36.5156 20.9006 36.672 20.6223 36.9504C20.3439 37.2288 20.1875 37.6063 20.1875 38C20.1875 38.3937 20.3439 38.7712 20.6223 39.0496C20.9006 39.328 21.2782 39.4844 21.6719 39.4844ZM40.9688 48.3906H21.6719C21.2782 48.3906 20.9006 48.547 20.6223 48.8254C20.3439 49.1038 20.1875 49.4813 20.1875 49.875C20.1875 50.2687 20.3439 50.6462 20.6223 50.9246C20.9006 51.203 21.2782 51.3594 21.6719 51.3594H40.9688C41.3624 51.3594 41.74 51.203 42.0184 50.9246C42.2967 50.6462 42.4531 50.2687 42.4531 49.875C42.4531 49.4813 42.2967 49.1038 42.0184 48.8254C41.74 48.547 41.3624 48.3906 40.9688 48.3906ZM57.2969 48.3906H54.3281V45.4219C54.3281 45.0282 54.1717 44.6506 53.8934 44.3723C53.615 44.0939 53.2374 43.9375 52.8438 43.9375C52.4501 43.9375 52.0725 44.0939 51.7941 44.3723C51.5158 44.6506 51.3594 45.0282 51.3594 45.4219V48.3906H48.3906C47.9969 48.3906 47.6194 48.547 47.341 48.8254C47.0626 49.1038 46.9062 49.4813 46.9062 49.875C46.9062 50.2687 47.0626 50.6462 47.341 50.9246C47.6194 51.203 47.9969 51.3594 48.3906 51.3594H51.3594V54.3281C51.3594 54.7218 51.5158 55.0994 51.7941 55.3777C52.0725 55.6561 52.4501 55.8125 52.8438 55.8125C53.2374 55.8125 53.615 55.6561 53.8934 55.3777C54.1717 55.0994 54.3281 54.7218 54.3281 54.3281V51.3594H57.2969C57.6906 51.3594 58.0681 51.203 58.3465 50.9246C58.6249 50.6462 58.7812 50.2687 58.7812 49.875C58.7812 49.4813 58.6249 49.1038 58.3465 48.8254C58.0681 48.547 57.6906 48.3906 57.2969 48.3906Z" fill="#22C55E"/>
</svg>
