<svg width="76" height="76" viewBox="0 0 76 76" fill="none" xmlns="http://www.w3.org/2000/svg">
<rect width="76" height="76" rx="9.5" fill="#EFF6FF"/>
<path d="M57.2969 23.1562H43.9375C42.7853 23.1562 41.6489 23.4245 40.6183 23.9398C39.5878 24.4551 38.6913 25.2032 38 26.125C37.3087 25.2032 36.4122 24.4551 35.3817 23.9398C34.3511 23.4245 33.2147 23.1562 32.0625 23.1562H18.7031C18.3094 23.1562 17.9319 23.3126 17.6535 23.591C17.3751 23.8694 17.2188 24.2469 17.2188 24.6406V51.3594C17.2188 51.7531 17.3751 52.1306 17.6535 52.409C17.9319 52.6874 18.3094 52.8438 18.7031 52.8438H32.0625C33.2435 52.8438 34.3762 53.3129 35.2113 54.148C36.0465 54.9832 36.5156 56.1158 36.5156 57.2969C36.5156 57.6906 36.672 58.0681 36.9504 58.3465C37.2288 58.6249 37.6063 58.7812 38 58.7812C38.3937 58.7812 38.7712 58.6249 39.0496 58.3465C39.328 58.0681 39.4844 57.6906 39.4844 57.2969C39.4844 56.1158 39.9535 54.9832 40.7887 54.148C41.6238 53.3129 42.7565 52.8438 43.9375 52.8438H57.2969C57.6906 52.8438 58.0681 52.6874 58.3465 52.409C58.6249 52.1306 58.7812 51.7531 58.7812 51.3594V24.6406C58.7812 24.2469 58.6249 23.8694 58.3465 23.591C58.0681 23.3126 57.6906 23.1562 57.2969 23.1562ZM32.0625 49.875H20.1875V26.125H32.0625C33.2435 26.125 34.3762 26.5942 35.2113 27.4293C36.0465 28.2644 36.5156 29.3971 36.5156 30.5781V51.3594C35.2321 50.3936 33.6688 49.8724 32.0625 49.875ZM55.8125 49.875H43.9375C42.3312 49.8724 40.7679 50.3936 39.4844 51.3594V30.5781C39.4844 29.3971 39.9535 28.2644 40.7887 27.4293C41.6238 26.5942 42.7565 26.125 43.9375 26.125H55.8125V49.875ZM43.9375 30.5781H51.3594C51.7531 30.5781 52.1306 30.7345 52.409 31.0129C52.6874 31.2913 52.8438 31.6688 52.8438 32.0625C52.8438 32.4562 52.6874 32.8337 52.409 33.1121C52.1306 33.3905 51.7531 33.5469 51.3594 33.5469H43.9375C43.5438 33.5469 43.1663 33.3905 42.8879 33.1121C42.6095 32.8337 42.4531 32.4562 42.4531 32.0625C42.4531 31.6688 42.6095 31.2913 42.8879 31.0129C43.1663 30.7345 43.5438 30.5781 43.9375 30.5781ZM52.8438 38C52.8438 38.3937 52.6874 38.7712 52.409 39.0496C52.1306 39.328 51.7531 39.4844 51.3594 39.4844H43.9375C43.5438 39.4844 43.1663 39.328 42.8879 39.0496C42.6095 38.7712 42.4531 38.3937 42.4531 38C42.4531 37.6063 42.6095 37.2288 42.8879 36.9504C43.1663 36.672 43.5438 36.5156 43.9375 36.5156H51.3594C51.7531 36.5156 52.1306 36.672 52.409 36.9504C52.6874 37.2288 52.8438 37.6063 52.8438 38ZM52.8438 43.9375C52.8438 44.3312 52.6874 44.7087 52.409 44.9871C52.1306 45.2655 51.7531 45.4219 51.3594 45.4219H43.9375C43.5438 45.4219 43.1663 45.2655 42.8879 44.9871C42.6095 44.7087 42.4531 44.3312 42.4531 43.9375C42.4531 43.5438 42.6095 43.1663 42.8879 42.8879C43.1663 42.6095 43.5438 42.4531 43.9375 42.4531H51.3594C51.7531 42.4531 52.1306 42.6095 52.409 42.8879C52.6874 43.1663 52.8438 43.5438 52.8438 43.9375Z" fill="#3B82F6"/>
</svg>
