<svg width="76" height="76" viewBox="0 0 76 76" fill="none" xmlns="http://www.w3.org/2000/svg">
<rect width="76" height="76" rx="9.5" fill="#FEF7EC"/>
<g clip-path="url(#clip0_260_1121)">
<path d="M42.4528 29.093C42.4528 28.6993 42.6092 28.3218 42.8875 28.0434C43.1659 27.765 43.5435 27.6086 43.9372 27.6086H60.2653C60.659 27.6086 61.0365 27.765 61.3149 28.0434C61.5933 28.3218 61.7497 28.6993 61.7497 29.093C61.7497 29.4867 61.5933 29.8642 61.3149 30.1426C61.0365 30.421 60.659 30.5774 60.2653 30.5774H43.9372C43.5435 30.5774 43.1659 30.421 42.8875 30.1426C42.6092 29.8642 42.4528 29.4867 42.4528 29.093ZM60.2653 36.5149H43.9372C43.5435 36.5149 43.1659 36.6713 42.8875 36.9496C42.6092 37.228 42.4528 37.6056 42.4528 37.9993C42.4528 38.3929 42.6092 38.7705 42.8875 39.0489C43.1659 39.3272 43.5435 39.4836 43.9372 39.4836H60.2653C60.659 39.4836 61.0365 39.3272 61.3149 39.0489C61.5933 38.7705 61.7497 38.3929 61.7497 37.9993C61.7497 37.6056 61.5933 37.228 61.3149 36.9496C61.0365 36.6713 60.659 36.5149 60.2653 36.5149ZM60.2653 45.4211H48.3903C47.9966 45.4211 47.619 45.5775 47.3407 45.8559C47.0623 46.1343 46.9059 46.5118 46.9059 46.9055C46.9059 47.2992 47.0623 47.6767 47.3407 47.9551C47.619 48.2335 47.9966 48.3899 48.3903 48.3899H60.2653C60.659 48.3899 61.0365 48.2335 61.3149 47.9551C61.5933 47.6767 61.7497 47.2992 61.7497 46.9055C61.7497 46.5118 61.5933 46.1343 61.3149 45.8559C61.0365 45.5775 60.659 45.4211 60.2653 45.4211ZM42.4064 49.5032C42.4549 49.692 42.4658 49.8886 42.4383 50.0816C42.4109 50.2746 42.3456 50.4604 42.2464 50.6282C42.1472 50.796 42.0158 50.9426 41.8599 51.0597C41.704 51.1767 41.5265 51.2619 41.3376 51.3104C41.2167 51.343 41.0919 51.3592 40.9666 51.3586C40.6373 51.3588 40.3174 51.2495 40.0571 51.048C39.7968 50.8465 39.6109 50.5641 39.5286 50.2453C38.3856 45.8034 33.8991 42.4524 29.0915 42.4524C24.284 42.4524 19.7975 45.8015 18.6545 50.2453C18.5561 50.6267 18.3102 50.9534 17.971 51.1535C17.6317 51.3536 17.2268 51.4107 16.8455 51.3122C16.4641 51.2138 16.1374 50.9679 15.9373 50.6287C15.7373 50.2894 15.6801 49.8845 15.7786 49.5032C16.8158 45.4749 19.8309 42.213 23.6569 40.5969C22.1837 39.4622 21.1026 37.8949 20.5653 36.1147C20.0279 34.3345 20.0612 32.4308 20.6606 30.6705C21.2599 28.9102 22.3952 27.3817 23.9072 26.2992C25.4192 25.2168 27.232 24.6348 29.0915 24.6348C30.9511 24.6348 32.7639 25.2168 34.2759 26.2992C35.7879 27.3817 36.9232 28.9102 37.5225 30.6705C38.1219 32.4308 38.1552 34.3345 37.6178 36.1147C37.0805 37.8949 35.9994 39.4622 34.5262 40.5969C38.354 42.213 41.3692 45.4749 42.4064 49.5032ZM29.0934 39.4836C30.2677 39.4836 31.4157 39.1354 32.3921 38.483C33.3685 37.8306 34.1295 36.9033 34.5789 35.8183C35.0283 34.7334 35.1459 33.5395 34.9168 32.3878C34.6877 31.236 34.1222 30.1781 33.2919 29.3477C32.4615 28.5173 31.4035 27.9518 30.2518 27.7227C29.1 27.4936 27.9062 27.6112 26.8212 28.0606C25.7363 28.51 24.809 29.271 24.1566 30.2474C23.5041 31.2239 23.1559 32.3718 23.1559 33.5461C23.1559 35.1209 23.7815 36.6311 24.895 37.7446C26.0085 38.8581 27.5187 39.4836 29.0934 39.4836Z" fill="#CD5712"/>
</g>
<defs>
<clipPath id="clip0_260_1121">
<rect width="47.5" height="47.5" fill="white" transform="translate(14.25 14.25)"/>
</clipPath>
</defs>
</svg>
