<svg width="16" height="16" viewBox="0 0 16 16" fill="none" xmlns="http://www.w3.org/2000/svg">
<path d="M12.5192 4.09305C12.2561 3.99579 11.971 3.97426 11.6962 4.0309C11.4215 4.08754 11.1681 4.22009 10.965 4.41349C10.7618 4.60689 10.6169 4.85339 10.5467 5.125C10.4777 5.39237 10.205 5.55316 9.93762 5.48412C9.67025 5.41509 9.50946 5.14237 9.5785 4.875C9.69538 4.42232 9.93686 4.01148 10.2755 3.68914C10.6142 3.36681 11.0364 3.1459 11.4943 3.05149C11.9522 2.95709 12.4274 2.99298 12.8659 3.15509C13.3045 3.3172 13.6888 3.59903 13.9752 3.96857C14.2615 4.33811 14.4386 4.78056 14.4861 5.24567C14.5337 5.71077 14.4499 6.1799 14.2442 6.59976C14.1054 6.88307 13.9149 7.13629 13.6838 7.34708C13.757 7.37866 13.8294 7.41233 13.901 7.44809C14.4913 7.74325 15.0046 8.17201 15.4002 8.7003C15.5657 8.92134 15.5207 9.23471 15.2997 9.40023C15.0787 9.56575 14.7653 9.52074 14.5998 9.2997C14.2974 8.89588 13.905 8.56814 13.4537 8.34252C13.0025 8.1169 12.5049 7.99962 12.0004 8C11.7242 8.00021 11.5002 7.77652 11.5 7.50038C11.4998 7.23664 11.7038 7.02044 11.9628 7.00138C11.9729 7.00063 11.9831 7.00018 11.9934 7.00004L11.9996 7C12.2801 6.99986 12.5552 6.92106 12.7932 6.77255C13.0312 6.62404 13.2228 6.41177 13.3462 6.15986C13.4696 5.90794 13.5199 5.62646 13.4913 5.3474C13.4628 5.06834 13.3566 4.80287 13.1847 4.58114C13.0129 4.35942 12.7823 4.19032 12.5192 4.09305Z" fill="#171717"/>
<path fill-rule="evenodd" clip-rule="evenodd" d="M5 9C5 7.34315 6.34315 6 8 6C9.65685 6 11 7.34315 11 9C11 9.97008 10.5396 10.8326 9.82531 11.381C9.97487 11.4463 10.1212 11.5197 10.2637 11.6011C10.9531 11.9951 11.5277 12.5621 11.9308 13.2462C12.071 13.4841 11.9918 13.7906 11.7539 13.9308C11.516 14.071 11.2095 13.9918 11.0693 13.7538C10.7546 13.2197 10.3059 12.777 9.76757 12.4694C9.22929 12.1618 8.62005 12 8.00008 12C7.38011 12 6.77087 12.1618 6.23258 12.4694C5.6943 12.777 5.2456 13.2197 4.93085 13.7538C4.79065 13.9918 4.48414 14.071 4.24623 13.9308C4.00833 13.7906 3.92911 13.4841 4.06931 13.2462C4.47242 12.5621 5.04706 11.9951 5.73645 11.6011C5.87889 11.5197 6.02522 11.4463 6.17475 11.381C5.46046 10.8327 5 9.97011 5 9ZM8 7C6.89543 7 6 7.89543 6 9C6 10.1046 6.89543 11 8 11C9.10457 11 10 10.1046 10 9C10 7.89543 9.10457 7 8 7Z" fill="#171717"/>
<path d="M2.54629 8.34252C2.99752 8.1169 3.49516 7.99962 3.99965 8C4.2758 8.00021 4.49982 7.77652 4.50003 7.50038C4.50023 7.22798 4.28257 7.00629 4.01161 7.00013C4.00782 7.00005 4.00403 7 4.00022 7C3.7197 6.99986 3.44485 6.92106 3.20686 6.77255C2.96888 6.62404 2.77731 6.41177 2.65391 6.15986C2.53051 5.90794 2.48022 5.62646 2.50876 5.3474C2.5373 5.06834 2.64352 4.80287 2.81536 4.58114C2.98719 4.35942 3.21776 4.19032 3.48088 4.09305C3.74399 3.99579 4.02911 3.97426 4.30385 4.0309C4.57859 4.08754 4.83195 4.22009 5.03514 4.41349C5.23833 4.60689 5.38322 4.85339 5.45335 5.125C5.52238 5.39237 5.7951 5.55316 6.06247 5.48412C6.32984 5.41509 6.49063 5.14237 6.42159 4.875C6.30471 4.42232 6.06323 4.01148 5.72458 3.68914C5.38593 3.36681 4.96367 3.1459 4.50577 3.05149C4.04787 2.95709 3.57267 2.99298 3.13415 3.15509C2.69562 3.3172 2.31134 3.59903 2.02494 3.96857C1.73854 4.33811 1.56151 4.78056 1.51395 5.24567C1.46639 5.71077 1.5502 6.1799 1.75587 6.59976C1.89464 6.88306 2.08514 7.13628 2.31624 7.34706C2.24302 7.37864 2.1706 7.41233 2.09907 7.44809C1.50876 7.74325 0.995405 8.17201 0.599804 8.7003C0.434285 8.92134 0.479292 9.23471 0.70033 9.40023C0.921369 9.56575 1.23474 9.52074 1.40026 9.2997C1.70265 8.89588 2.09505 8.56814 2.54629 8.34252Z" fill="#171717"/>
</svg>
