<svg width="177" height="28" viewBox="0 0 177 28" fill="none" xmlns="http://www.w3.org/2000/svg">
<path d="M0.931152 21.4338V20.5224C3.58268 20.4395 3.58268 19.8042 3.58268 17.8984V5.63513C3.58268 3.70172 3.58268 3.09408 0.931152 3.01122V2.09975H10.1286C15.045 2.09975 19.6852 5.63513 19.6852 11.7668C19.6852 17.8984 14.9622 21.4338 10.0734 21.4338H0.931152ZM8.80288 20.4119H10.1563C14.0507 20.4119 15.7908 16.8489 15.7908 11.7668C15.7908 6.68469 14.0507 3.1217 10.2391 3.1217H8.80288C7.33901 3.1217 7.17329 3.61886 7.17329 4.917V18.6166C7.17329 19.8042 7.31139 20.4119 8.80288 20.4119Z" fill="#1D4749"/>
<path d="M36.3041 18.2023C36.3041 20.0252 36.3041 20.4671 38.2651 20.55V21.4338H31.222V20.55C33.1001 20.4671 33.1001 20.0252 33.1001 18.2023V11.9877C33.1001 10.0543 32.3268 9.25336 30.9182 9.25336C29.2333 9.25336 27.6866 10.6896 26.7199 13.1202V18.2023C26.7199 20.0252 26.7199 20.4671 28.5981 20.55V21.4338H21.4997V20.55C23.4607 20.4671 23.4607 20.0252 23.4607 18.2023V4.41984C23.4607 3.06646 23.4607 1.8788 21.4997 1.96165V1.07781L26.5266 0.71875L26.9132 1.07781L26.7199 4.97225L26.4713 11.5182C27.6866 9.00478 29.841 7.40281 32.2439 7.40281C34.785 7.40281 36.3041 9.0324 36.3041 11.9049V18.2023Z" fill="#1D4749"/>
<path d="M53.9891 16.987H54.7901V18.6994C54.7901 19.5833 54.652 20.3566 54.1272 20.8814C53.6301 21.3786 52.8015 21.6824 51.7519 21.6824C50.7576 21.6824 49.9566 21.3786 49.4318 20.7157C49.0451 20.1909 48.907 19.4452 48.907 18.4785V18.3956C48.4375 19.5833 47.1946 21.71 43.8526 21.71C41.5048 21.71 40.041 20.3014 40.041 18.1746C40.041 16.8489 40.5934 15.9927 41.5601 15.3022C43.162 14.1145 45.7307 13.5621 48.8242 13.1754V11.5734C48.8242 8.97716 47.526 8.31428 46.1726 8.31428C45.0126 8.31428 44.2945 8.64572 43.8802 9.08764C43.5764 9.36384 43.4659 9.7229 43.4659 10.082C43.4659 10.7725 43.9078 11.2144 44.764 11.822C44.5431 12.7059 43.6316 13.2583 42.6373 13.2583C41.2286 13.2583 40.5658 12.2087 40.5658 11.0487C40.5658 8.78382 43.0239 7.40281 46.3384 7.40281C49.487 7.40281 52.0005 8.6181 52.0005 12.1535V18.6166C52.0005 19.1414 52.0281 19.6109 52.1938 19.8871C52.3319 20.1633 52.6081 20.329 52.9948 20.329C53.3815 20.329 53.6577 20.1633 53.8234 19.8319C53.9615 19.5557 53.9891 19.0861 53.9891 18.5889V16.987ZM45.3164 19.9976C47.5536 19.9976 48.7965 17.6775 48.8242 15.5784V14.0593C46.946 14.3078 45.3993 14.6945 44.4049 15.5231C43.6316 16.1031 43.383 16.8765 43.383 17.788C43.383 19.0585 44.0735 19.9976 45.3164 19.9976Z" fill="#1D4749"/>
<path d="M65.4292 7.40281C67.5007 7.40281 68.4951 8.83906 68.4951 10.3858C68.4951 12.0154 67.3903 13.0649 66.1197 13.0649C65.3187 13.0649 64.7111 12.5401 64.4625 11.822C65.0978 11.242 65.5121 10.5239 65.4845 9.91624C65.4569 9.33622 65.1254 9.00478 64.4902 9.00478C63.2196 9.00478 61.811 10.662 61.0376 14.4459V18.2023C61.0376 20.0252 61.0376 20.4671 63.192 20.55V21.4338H55.8451V20.55C57.7785 20.4671 57.7785 20.0252 57.7785 18.2023V11.1315C57.7785 9.77814 57.7785 8.53524 55.5965 8.67334V7.78949L60.5957 7.40281L60.9548 7.78949L60.8167 11.9049C61.7005 8.86668 63.413 7.40281 65.4292 7.40281Z" fill="#1D4749"/>
<path d="M93.7603 18.2023C93.7603 20.0252 93.7603 20.4671 95.7214 20.55V21.4338H88.6782V20.55C90.5288 20.4671 90.5288 20.0252 90.5288 18.2023V11.9877C90.5288 10.0543 89.7554 9.25336 88.4573 9.25336C86.8829 9.25336 85.3914 10.7172 84.4524 13.1754V18.2023C84.4524 20.0252 84.4524 20.4671 86.3029 20.55V21.4338H79.3703V20.55C81.2208 20.4671 81.2208 20.0252 81.2208 18.2023V11.9877C81.2208 10.0543 80.4474 9.25336 79.1217 9.25336C77.5473 9.25336 76.0835 10.7172 75.1444 13.1754V18.2023C75.1444 20.0252 75.1444 20.4671 76.9949 20.55V21.4338H69.9518V20.55C71.8852 20.4671 71.8852 20.0252 71.8852 18.2023V11.1315C71.8852 9.77814 71.8852 8.53524 69.7032 8.67334V7.78949L74.7025 7.40281L75.0615 7.78949L74.8958 11.5458C76.0558 9.0324 78.0997 7.40281 80.4198 7.40281C82.6847 7.40281 84.1485 8.72858 84.4247 11.1315C85.6124 8.86668 87.5458 7.40281 89.7278 7.40281C92.2412 7.40281 93.7603 9.0324 93.7603 11.9049V18.2023Z" fill="#1D4749"/>
<path d="M107.657 4.6408C106.359 4.58556 105.088 4.53032 103.79 4.53032C102.492 4.53032 101.194 4.58556 99.8959 4.6408V3.28742C101.194 3.37028 102.492 3.3979 103.79 3.3979C105.088 3.3979 106.359 3.37028 107.657 3.28742V4.6408ZM111.441 16.987H112.242V18.6994C112.242 19.5833 112.104 20.3566 111.579 20.8814C111.082 21.3786 110.253 21.6824 109.204 21.6824C108.21 21.6824 107.409 21.3786 106.884 20.7157C106.497 20.1909 106.359 19.4452 106.359 18.4785V18.3956C105.889 19.5833 104.647 21.71 101.304 21.71C98.9568 21.71 97.4929 20.3014 97.4929 18.1746C97.4929 16.8489 98.0453 15.9927 99.012 15.3022C100.614 14.1145 103.183 13.5621 106.276 13.1754V11.5734C106.276 8.97716 104.978 8.31428 103.625 8.31428C102.465 8.31428 101.746 8.64572 101.332 9.08764C101.028 9.36384 100.918 9.7229 100.918 10.082C100.918 10.7725 101.36 11.2144 102.216 11.822C101.995 12.7059 101.084 13.2583 100.089 13.2583C98.6806 13.2583 98.0177 12.2087 98.0177 11.0487C98.0177 8.78382 100.476 7.40281 103.79 7.40281C106.939 7.40281 109.452 8.6181 109.452 12.1535V18.6166C109.452 19.1414 109.48 19.6109 109.646 19.8871C109.784 20.1633 110.06 20.329 110.447 20.329C110.833 20.329 111.11 20.1633 111.275 19.8319C111.413 19.5557 111.441 19.0861 111.441 18.5889V16.987ZM102.768 19.9976C105.006 19.9976 106.248 17.6775 106.276 15.5784V14.0593C104.398 14.3078 102.851 14.6945 101.857 15.5231C101.084 16.1031 100.835 16.8765 100.835 17.788C100.835 19.0585 101.525 19.9976 102.768 19.9976Z" fill="#1D4749"/>
<path d="M121.9 7.67901H127.258V8.56286C125.242 8.64572 124.938 9.33622 124.027 11.5458L118.447 24.8035C117.563 26.9578 116.321 27.9522 114.719 27.9522C113.172 27.9522 111.791 26.9026 111.791 25.2178C111.791 23.7815 112.73 22.7596 113.973 22.7596C114.884 22.7596 115.437 23.4225 115.52 24.1958C114.387 24.7482 113.779 25.3006 113.807 26.0464C113.807 26.6816 114.304 27.0683 114.967 27.0683C115.768 27.0683 116.707 26.5712 117.481 24.7482L119 21.1024L114.912 11.5734C113.918 9.1705 113.752 8.64572 111.57 8.56286V7.67901H119.497V8.56286C117.204 8.64572 117.453 9.25336 118.337 11.6011L119.635 14.9431L120.546 17.4565H120.602L123.005 11.5458C123.916 9.36384 124.192 8.64572 121.9 8.56286V7.67901Z" fill="#1D4749"/>
<path d="M141.839 16.987H142.64V18.6994C142.64 19.5833 142.502 20.3566 141.977 20.8814C141.48 21.3786 140.652 21.6824 139.602 21.6824C138.608 21.6824 137.807 21.3786 137.282 20.7157C136.895 20.1909 136.757 19.4452 136.757 18.4785V18.3956C136.288 19.5833 135.045 21.71 131.703 21.71C129.355 21.71 127.891 20.3014 127.891 18.1746C127.891 16.8489 128.444 15.9927 129.41 15.3022C131.012 14.1145 133.581 13.5621 136.674 13.1754V11.5734C136.674 8.97716 135.376 8.31428 134.023 8.31428C132.863 8.31428 132.145 8.64572 131.73 9.08764C131.427 9.36384 131.316 9.7229 131.316 10.082C131.316 10.7725 131.758 11.2144 132.614 11.822C132.393 12.7059 131.482 13.2583 130.487 13.2583C129.079 13.2583 128.416 12.2087 128.416 11.0487C128.416 8.78382 130.874 7.40281 134.189 7.40281C137.337 7.40281 139.851 8.6181 139.851 12.1535V18.6166C139.851 19.1414 139.878 19.6109 140.044 19.8871C140.182 20.1633 140.458 20.329 140.845 20.329C141.232 20.329 141.508 20.1633 141.674 19.8319C141.812 19.5557 141.839 19.0861 141.839 18.5889V16.987ZM133.167 19.9976C135.404 19.9976 136.647 17.6775 136.674 15.5784V14.0593C134.796 14.3078 133.249 14.6945 132.255 15.5231C131.482 16.1031 131.233 16.8765 131.233 17.788C131.233 19.0585 131.924 19.9976 133.167 19.9976Z" fill="#1D4749"/>
<path d="M158.5 18.2023C158.5 20.0252 158.5 20.4671 160.461 20.55V21.4338H153.39V20.55C155.268 20.4671 155.268 20.0252 155.268 18.2023V11.9877C155.268 10.0543 154.495 9.25336 153.086 9.25336C151.401 9.25336 149.827 10.7172 148.888 13.1754V18.2023C148.888 20.0252 148.888 20.4671 150.766 20.55V21.4338H143.695V20.55C145.629 20.4671 145.629 20.0252 145.629 18.2023V11.1315C145.629 9.77814 145.629 8.53524 143.447 8.67334V7.78949L148.446 7.40281L148.805 7.78949L148.639 11.5458C149.827 9.0324 152.009 7.40281 154.412 7.40281C156.953 7.40281 158.5 9.0324 158.5 11.9049V18.2023Z" fill="#1D4749"/>
<path d="M176.149 16.987H176.95V18.6994C176.95 19.5833 176.812 20.3566 176.287 20.8814C175.79 21.3786 174.961 21.6824 173.911 21.6824C172.917 21.6824 172.116 21.3786 171.591 20.7157C171.205 20.1909 171.067 19.4452 171.067 18.4785V18.3956C170.597 19.5833 169.354 21.71 166.012 21.71C163.664 21.71 162.201 20.3014 162.201 18.1746C162.201 16.8489 162.753 15.9927 163.72 15.3022C165.322 14.1145 167.89 13.5621 170.984 13.1754V11.5734C170.984 8.97716 169.686 8.31428 168.332 8.31428C167.172 8.31428 166.454 8.64572 166.04 9.08764C165.736 9.36384 165.625 9.7229 165.625 10.082C165.625 10.7725 166.067 11.2144 166.924 11.822C166.703 12.7059 165.791 13.2583 164.797 13.2583C163.388 13.2583 162.725 12.2087 162.725 11.0487C162.725 8.78382 165.183 7.40281 168.498 7.40281C171.647 7.40281 174.16 8.6181 174.16 12.1535V18.6166C174.16 19.1414 174.188 19.6109 174.353 19.8871C174.491 20.1633 174.768 20.329 175.154 20.329C175.541 20.329 175.817 20.1633 175.983 19.8319C176.121 19.5557 176.149 19.0861 176.149 18.5889V16.987ZM167.476 19.9976C169.713 19.9976 170.956 17.6775 170.984 15.5784V14.0593C169.106 14.3078 167.559 14.6945 166.564 15.5231C165.791 16.1031 165.543 16.8765 165.543 17.788C165.543 19.0585 166.233 19.9976 167.476 19.9976Z" fill="#1D4749"/>
</svg>
