<svg width="16" height="16" viewBox="0 0 16 16" fill="none" xmlns="http://www.w3.org/2000/svg">
<g clip-path="url(#clip0_370_3002)">
<path fill-rule="evenodd" clip-rule="evenodd" d="M12.6668 2.11458C12.5067 2.11458 12.3482 2.14611 12.2003 2.20737C12.0524 2.26863 11.918 2.35842 11.8048 2.47161L2.93002 11.3464L2.28358 13.7167L4.65388 13.0703L13.5287 4.19546C13.6419 4.08227 13.7317 3.9479 13.7929 3.80001C13.8542 3.65212 13.8857 3.49361 13.8857 3.33353C13.8857 3.17346 13.8542 3.01495 13.7929 2.86706C13.7317 2.71917 13.6419 2.5848 13.5287 2.47161C13.4155 2.35842 13.2811 2.26863 13.1332 2.20737C12.9853 2.14611 12.8268 2.11458 12.6668 2.11458ZM11.69 0.975531C11.9997 0.847267 12.3316 0.78125 12.6668 0.78125C13.0019 0.78125 13.3338 0.847267 13.6435 0.975531C13.9531 1.1038 14.2345 1.2918 14.4715 1.5288C14.7085 1.7658 14.8965 2.04716 15.0248 2.35682C15.153 2.66648 15.219 2.99837 15.219 3.33353C15.219 3.6687 15.153 4.00059 15.0248 4.31025C14.8965 4.61991 14.7085 4.90127 14.4715 5.13827L5.4715 14.1383C5.38946 14.2203 5.28744 14.2795 5.17551 14.31L1.50884 15.31C1.27803 15.373 1.03119 15.3074 0.862026 15.1383C0.692859 14.9691 0.627307 14.7223 0.690254 14.4915L1.69025 10.8248C1.72078 10.7129 1.77999 10.6108 1.86203 10.5288L10.862 1.5288C11.099 1.2918 11.3804 1.1038 11.69 0.975531Z" fill="#CD5712"/>
</g>
<defs>
<clipPath id="clip0_370_3002">
<rect width="16" height="16" fill="white"/>
</clipPath>
</defs>
</svg>
