<svg width="16" height="16" viewBox="0 0 16 16" fill="none" xmlns="http://www.w3.org/2000/svg">
<path fill-rule="evenodd" clip-rule="evenodd" d="M7.59063 0.806447C7.83137 0.619205 8.16847 0.619205 8.40921 0.806447L14.4092 5.47311C14.5716 5.59942 14.6666 5.79362 14.6666 5.99935V13.3327C14.6666 13.8631 14.4559 14.3718 14.0808 14.7469C13.7057 15.122 13.197 15.3327 12.6666 15.3327H3.33325C2.80282 15.3327 2.29411 15.122 1.91904 14.7469C1.54397 14.3718 1.33325 13.8631 1.33325 13.3327V5.99935C1.33325 5.79362 1.42823 5.59942 1.59062 5.47311L7.59063 0.806447ZM2.66659 6.32541V13.3327C2.66659 13.5095 2.73682 13.6791 2.86185 13.8041C2.98687 13.9291 3.15644 13.9993 3.33325 13.9993H12.6666C12.8434 13.9993 13.013 13.9291 13.138 13.8041C13.263 13.6791 13.3333 13.5095 13.3333 13.3327V6.32541L7.99992 2.17726L2.66659 6.32541Z" fill="#171717"/>
<path fill-rule="evenodd" clip-rule="evenodd" d="M5.33325 8.00065C5.33325 7.63246 5.63173 7.33398 5.99992 7.33398H9.99992C10.3681 7.33398 10.6666 7.63246 10.6666 8.00065V14.6673C10.6666 15.0355 10.3681 15.334 9.99992 15.334C9.63173 15.334 9.33325 15.0355 9.33325 14.6673V8.66732H6.66659V14.6673C6.66659 15.0355 6.36811 15.334 5.99992 15.334C5.63173 15.334 5.33325 15.0355 5.33325 14.6673V8.00065Z" fill="#171717"/>
</svg>
