<svg width="16" height="16" viewBox="0 0 16 16" fill="none" xmlns="http://www.w3.org/2000/svg">
<g opacity="0.5">
<path fill-rule="evenodd" clip-rule="evenodd" d="M4.19526 9.52925C4.45561 9.2689 4.87772 9.2689 5.13807 9.52925L8 12.3912L10.8619 9.52925C11.1223 9.2689 11.5444 9.2689 11.8047 9.52925C12.0651 9.7896 12.0651 10.2117 11.8047 10.4721L8.4714 13.8054C8.21106 14.0657 7.78894 14.0657 7.5286 13.8054L4.19526 10.4721C3.93491 10.2117 3.93491 9.7896 4.19526 9.52925Z" fill="#171717"/>
<path fill-rule="evenodd" clip-rule="evenodd" d="M7.5286 2.19526C7.78894 1.93491 8.21106 1.93491 8.4714 2.19526L11.8047 5.5286C12.0651 5.78894 12.0651 6.21105 11.8047 6.4714C11.5444 6.73175 11.1223 6.73175 10.8619 6.4714L8 3.60948L5.13807 6.4714C4.87772 6.73175 4.45561 6.73175 4.19526 6.4714C3.93491 6.21105 3.93491 5.78894 4.19526 5.5286L7.5286 2.19526Z" fill="#171717"/>
</g>
</svg>
