<svg width="16" height="16" viewBox="0 0 16 16" fill="none" xmlns="http://www.w3.org/2000/svg">
<path d="M2.5 3C2.23478 3 1.98043 3.10536 1.79289 3.29289C1.60536 3.48043 1.5 3.73478 1.5 4V12.5C1.5 12.7652 1.60536 13.0196 1.79289 13.2071C1.98043 13.3946 2.23478 13.5 2.5 13.5H7.5C7.77614 13.5 8 13.2761 8 13C8 12.7239 7.77614 12.5 7.5 12.5H2.5L2.5 4L5.83317 4.00003L7.56692 5.30003C7.74001 5.42983 7.95052 5.5 8.16687 5.5H13.5V7.5C13.5 7.77614 13.7239 8 14 8C14.2761 8 14.5 7.77614 14.5 7.5V5.5C14.5 5.23478 14.3946 4.98043 14.2071 4.79289C14.0196 4.60536 13.7652 4.5 13.5 4.5L8.16683 4.49997L6.43308 3.19997C6.25999 3.07017 6.04948 3 5.83313 3H2.5Z" fill="#171717"/>
<path fill-rule="evenodd" clip-rule="evenodd" d="M10 11C10 9.89543 10.8954 9 12 9C13.1046 9 14 9.89543 14 11C14 11.5522 13.7762 12.0522 13.4143 12.4141C13.933 12.7487 14.3213 13.2631 14.4831 13.8715C14.5541 14.1384 14.3953 14.4122 14.1284 14.4832C13.8615 14.5542 13.5876 14.3954 13.5167 14.1285C13.3466 13.4889 12.7398 13 11.9999 13C11.26 13 10.6532 13.4889 10.4831 14.1285C10.4121 14.3954 10.1382 14.5542 9.87138 14.4832C9.60451 14.4122 9.4457 14.1384 9.51667 13.8715C9.67849 13.263 10.0668 12.7486 10.5856 12.414C10.2238 12.0521 10 11.5522 10 11ZM12 10C11.4477 10 11 10.4477 11 11C11 11.5523 11.4477 12 12 12C12.5523 12 13 11.5523 13 11C13 10.4477 12.5523 10 12 10Z" fill="#171717"/>
</svg>
