<svg width="76" height="76" viewBox="0 0 76 76" fill="none" xmlns="http://www.w3.org/2000/svg">
<rect width="76" height="76" rx="9.5" fill="#FAF5FF"/>
<path d="M59.6715 42.1566C59.5155 42.2736 59.3381 42.3587 59.1492 42.407C58.9604 42.4554 58.7639 42.4661 58.5709 42.4386C58.3779 42.411 58.1923 42.3457 58.0246 42.2464C57.8568 42.1471 57.7103 42.0157 57.5933 41.8597C56.6987 40.6571 55.5341 39.6814 54.1934 39.0111C52.8528 38.3407 51.3735 37.9945 49.8746 38.0004C49.5827 38.0003 49.2973 37.9142 49.0541 37.7529C48.8108 37.5915 48.6206 37.362 48.5071 37.093C48.43 36.9104 48.3903 36.7142 48.3903 36.516C48.3903 36.3178 48.43 36.1216 48.5071 35.9389C48.6206 35.67 48.8108 35.4405 49.0541 35.2791C49.2973 35.1177 49.5827 35.0316 49.8746 35.0316C50.7075 35.0315 51.5236 34.7979 52.2303 34.3572C52.9371 33.9165 53.5061 33.2865 53.8727 32.5387C54.2393 31.7908 54.3888 30.9552 54.3043 30.1266C54.2198 29.298 53.9046 28.5098 53.3946 27.8514C52.8845 27.1929 52.2 26.6908 51.4189 26.4018C50.6377 26.1129 49.7912 26.0489 48.9755 26.217C48.1598 26.3851 47.4075 26.7785 46.8042 27.3527C46.2009 27.9269 45.7707 28.6588 45.5625 29.4652C45.5137 29.654 45.4283 29.8314 45.311 29.9872C45.1937 30.1431 45.0469 30.2742 44.8789 30.3733C44.7109 30.4724 44.525 30.5374 44.3319 30.5646C44.1388 30.5919 43.9422 30.5808 43.7534 30.5321C43.5646 30.4834 43.3872 30.3979 43.2313 30.2806C43.0755 30.1633 42.9443 30.0165 42.8453 29.8485C42.7462 29.6805 42.6812 29.4947 42.6539 29.3015C42.6267 29.1084 42.6378 28.9118 42.6865 28.723C42.9755 27.6047 43.5215 26.5694 44.2811 25.6992C45.0406 24.8291 45.9928 24.1483 47.0618 23.7109C48.1308 23.2735 49.2871 23.0917 50.4387 23.1799C51.5904 23.268 52.7055 23.6237 53.6955 24.2187C54.6855 24.8137 55.5229 25.6315 56.1412 26.6071C56.7595 27.5826 57.1416 28.6891 57.257 29.8383C57.3724 30.9875 57.2181 32.1478 56.8062 33.2269C56.3943 34.3059 55.7362 35.274 54.8843 36.054C56.9027 36.9279 58.6574 38.3147 59.9739 40.0766C60.0908 40.233 60.1758 40.4108 60.2239 40.6001C60.272 40.7893 60.2823 40.9861 60.2542 41.1794C60.2261 41.3726 60.1602 41.5583 60.0602 41.726C59.9602 41.8937 59.8281 42.04 59.6715 42.1566ZM49.6742 53.5863C49.7816 53.7552 49.8537 53.9442 49.8862 54.1417C49.9187 54.3392 49.9109 54.5413 49.8633 54.7358C49.8156 54.9302 49.7292 55.113 49.6091 55.2732C49.4889 55.4333 49.3377 55.5676 49.1643 55.6677C48.991 55.7679 48.7992 55.832 48.6005 55.8562C48.4018 55.8803 48.2002 55.864 48.0079 55.8082C47.8157 55.7524 47.6367 55.6583 47.4817 55.5316C47.3267 55.4048 47.199 55.2481 47.1062 55.0707C46.1712 53.4873 44.8394 52.1752 43.2424 51.2636C41.6455 50.3521 39.8384 49.8726 37.9996 49.8726C36.1608 49.8726 34.3537 50.3521 32.7567 51.2636C31.1597 52.1752 29.828 53.4873 28.8929 55.0707C28.8001 55.2481 28.6724 55.4048 28.5175 55.5316C28.3625 55.6583 28.1835 55.7524 27.9912 55.8082C27.799 55.864 27.5974 55.8803 27.3987 55.8562C27.1999 55.832 27.0081 55.7679 26.8348 55.6677C26.6615 55.5676 26.5102 55.4333 26.3901 55.2732C26.27 55.113 26.1835 54.9302 26.1359 54.7358C26.0883 54.5413 26.0805 54.3392 26.113 54.1417C26.1455 53.9442 26.2176 53.7552 26.325 53.5863C27.7641 51.1136 29.9583 49.1678 32.5853 48.0347C31.1071 46.903 30.0208 45.3364 29.4789 43.5553C28.9371 41.7742 28.967 39.8681 29.5645 38.1048C30.162 36.3416 31.297 34.8099 32.81 33.7251C34.323 32.6403 36.1379 32.0569 37.9996 32.0569C39.8613 32.0569 41.6762 32.6403 43.1892 33.7251C44.7022 34.8099 45.8372 36.3416 46.4347 38.1048C47.0322 39.8681 47.0621 41.7742 46.5203 43.5553C45.9784 45.3364 44.892 46.903 43.4138 48.0347C46.0408 49.1678 48.2351 51.1136 49.6742 53.5863ZM37.9996 46.9066C39.1739 46.9066 40.3219 46.5584 41.2983 45.906C42.2747 45.2535 43.0357 44.3262 43.4851 43.2413C43.9345 42.1563 44.0521 40.9625 43.823 39.8108C43.5939 38.659 43.0284 37.601 42.198 36.7707C41.3677 35.9403 40.3097 35.3748 39.1579 35.1457C38.0062 34.9166 36.8123 35.0342 35.7274 35.4836C34.6425 35.933 33.7152 36.694 33.0627 37.6704C32.4103 38.6468 32.0621 39.7948 32.0621 40.9691C32.0621 42.5438 32.6876 44.054 33.8011 45.1675C34.9146 46.281 36.4249 46.9066 37.9996 46.9066ZM27.609 36.516C27.609 36.1223 27.4526 35.7447 27.1742 35.4664C26.8958 35.188 26.5183 35.0316 26.1246 35.0316C25.2917 35.0315 24.4756 34.7979 23.7688 34.3572C23.0621 33.9165 22.4931 33.2865 22.1265 32.5387C21.7599 31.7908 21.6103 30.9552 21.6948 30.1266C21.7794 29.298 22.0945 28.5098 22.6046 27.8514C23.1146 27.1929 23.7991 26.6908 24.5803 26.4018C25.3614 26.1129 26.208 26.0489 27.0237 26.217C27.8394 26.3851 28.5917 26.7785 29.195 27.3527C29.7983 27.9269 30.2285 28.6588 30.4367 29.4652C30.5351 29.8466 30.781 30.1732 31.1203 30.3733C31.4595 30.5734 31.8644 30.6305 32.2458 30.5321C32.6272 30.4337 32.9538 30.1878 33.1539 29.8485C33.354 29.5092 33.4111 29.1044 33.3127 28.723C33.0237 27.6047 32.4777 26.5694 31.7181 25.6992C30.9585 24.8291 30.0064 24.1483 28.9374 23.7109C27.8684 23.2735 26.7121 23.0917 25.5604 23.1799C24.4088 23.268 23.2936 23.6237 22.3037 24.2187C21.3137 24.8137 20.4763 25.6315 19.858 26.6071C19.2397 27.5826 18.8576 28.6891 18.7422 29.8383C18.6267 30.9875 18.7811 32.1478 19.193 33.2269C19.6049 34.3059 20.263 35.274 21.1148 36.054C19.0985 36.9287 17.3458 38.3155 16.0308 40.0766C15.7944 40.3916 15.6927 40.7875 15.7482 41.1774C15.8037 41.5673 16.0118 41.9192 16.3268 42.1557C16.6417 42.3921 17.0377 42.4938 17.4276 42.4383C17.8175 42.3828 18.1694 42.1747 18.4058 41.8597C19.3005 40.6571 20.4651 39.6814 21.8057 39.0111C23.1464 38.3407 24.6257 37.9945 26.1246 38.0004C26.5183 38.0004 26.8958 37.844 27.1742 37.5656C27.4526 37.2872 27.609 36.9097 27.609 36.516Z" fill="#A855F7"/>
</svg>
