<svg width="86" height="40" viewBox="0 0 86 40" fill="none" xmlns="http://www.w3.org/2000/svg">
<path d="M32.6087 23.9114C32.076 23.9114 31.5363 23.8007 31.0174 23.5724L19.9471 18.6392C17.9683 17.7605 17.0757 15.4288 17.9544 13.45L22.8876 2.3797C23.7663 0.400892 26.098 -0.491648 28.0768 0.387055L39.1471 5.32024C41.1259 6.19895 42.0184 8.53062 41.1397 10.5094L36.2065 21.5797C35.5492 23.0465 34.1101 23.9114 32.6087 23.9114ZM31.9376 21.4967C32.7748 21.8703 33.7572 21.4898 34.1309 20.6595L39.0641 9.58922C39.4377 8.75203 39.0571 7.76954 38.2269 7.39592L27.1497 2.46273C26.3125 2.08911 25.33 2.46965 24.9564 3.29992L20.0232 14.3702C19.6496 15.2074 20.0301 16.1899 20.8604 16.5635L31.9376 21.4967Z" fill="#089949"/>
<path d="M67.3349 23.9193H55.2129C53.0473 23.9193 51.283 22.155 51.283 19.9894V7.86745C51.283 5.70182 53.0473 3.9375 55.2129 3.9375H67.3349C69.5005 3.9375 71.2648 5.70182 71.2648 7.86745V19.9894C71.2648 22.155 69.5005 23.9193 67.3349 23.9193ZM55.2129 6.20691C54.2996 6.20691 53.5524 6.95415 53.5524 7.86745V19.9894C53.5524 20.9027 54.2996 21.6499 55.2129 21.6499H67.3349C68.2481 21.6499 68.9954 20.9027 68.9954 19.9894V7.86745C68.9954 6.95415 68.2481 6.20691 67.3349 6.20691H55.2129Z" fill="#F9B21D"/>
<path d="M21.9398 10.0896L20.3069 13.7428C20.2862 13.7843 20.2654 13.8189 20.2447 13.8535L20.8812 17.7834C21.0265 18.6898 20.4107 19.5408 19.5113 19.6861L7.54154 21.6234C7.10565 21.6926 6.66284 21.5888 6.30305 21.3328C5.94327 21.0768 5.70802 20.6894 5.63884 20.2535L3.70154 8.28376C3.63235 7.84787 3.73613 7.40505 3.99213 7.04527C4.24813 6.68549 4.63559 6.45024 5.07148 6.38105L17.0412 4.44376C17.1312 4.42992 17.2211 4.423 17.3041 4.423C18.0998 4.423 18.8125 5.00419 18.9439 5.82062L19.5874 9.77824L21.2756 5.99359L21.1856 5.46084C20.8397 3.32289 18.8194 1.863 16.6814 2.20895L4.7117 4.14624C3.68078 4.30538 2.76748 4.86581 2.15862 5.71684C1.54284 6.56786 1.30067 7.6057 1.46673 8.64354L3.40402 20.6133C3.57008 21.6511 4.13051 22.5575 4.98154 23.1733C5.65267 23.6645 6.44835 23.9136 7.2717 23.9136C7.47927 23.9136 7.69375 23.8998 7.90824 23.8652L19.878 21.9279C22.0159 21.5819 23.4758 19.5616 23.1299 17.4236L21.9398 10.0896Z" fill="#E42527"/>
<path d="M36.2964 15.8039L38.0538 11.867L37.5556 8.20688C37.4933 7.77099 37.611 7.3351 37.8808 6.98223C38.1506 6.62937 38.5381 6.40104 38.9809 6.34569L50.9921 4.71283C51.0682 4.70591 51.1444 4.69899 51.2205 4.69899C51.5802 4.69899 51.9262 4.81661 52.2237 5.03802C52.2791 5.07953 52.3275 5.12796 52.3759 5.16948C52.9087 4.60904 53.6075 4.20775 54.3893 4.03477C54.1679 3.73034 53.905 3.4605 53.5937 3.22526C52.7565 2.58872 51.7255 2.31888 50.6877 2.45726L38.6626 4.09013C37.6248 4.2285 36.6977 4.76818 36.068 5.60537C35.4315 6.44256 35.1617 7.47348 35.3 8.51132L36.2964 15.8039Z" fill="#226DB4"/>
<path d="M56.7349 17.8308L55.1574 6.20703C54.2718 6.23471 53.5591 6.96811 53.5591 7.86065V11.2717L54.4932 18.1352C54.5554 18.5711 54.4378 19.007 54.168 19.3599C53.8981 19.7128 53.5107 19.9411 53.0679 19.9964L41.0566 21.6293C40.6207 21.6916 40.1848 21.5739 39.832 21.3041C39.4791 21.0343 39.2508 20.6468 39.1954 20.204L38.6419 16.1288L36.8845 20.0656L36.9468 20.5084C37.0852 21.5463 37.6248 22.4734 38.462 23.103C39.1539 23.6289 39.9773 23.9056 40.8352 23.9056C41.0151 23.9056 41.195 23.8918 41.3749 23.871L53.3723 22.252C54.4101 22.1136 55.3373 21.574 55.9669 20.7368C56.6034 19.8996 56.8733 18.8687 56.7349 17.8308Z" fill="#226DB4"/>
</svg>
